REM DIRINDEX 1\2,1\3
REM DIRNAME cjc133,folder01,folder02
TITLE ""
FILE "DISC1Track14.mp3" MP3
  TRACK 01 AUDIO
    TITLE "0:"
    INDEX 01 00:00:00
  TRACK 02 AUDIO
    TITLE "3:cjc133_0600"
    INDEX 01 00:00:13
  TRACK 03 AUDIO
    TITLE "0:"
    INDEX 01 00:01:28
  TRACK 04 AUDIO
    TITLE "2:cjc133_0601"
    INDEX 01 00:02:02
  TRACK 05 AUDIO
    TITLE "2:cjc133_0602"
    INDEX 01 00:05:16
  TRACK 06 AUDIO
    TITLE "2:cjc133_0603"
    INDEX 01 00:07:60
  TRACK 07 AUDIO
    TITLE "0:"
    INDEX 01 00:09:38
  TRACK 08 AUDIO
    TITLE "2:cjc133_0604"
    INDEX 01 00:10:12
  TRACK 09 AUDIO
    TITLE "2:cjc133_0605"
    INDEX 01 00:12:42
  TRACK 10 AUDIO
    TITLE "2:cjc133_0606"
    INDEX 01 00:15:21
  TRACK 11 AUDIO
    TITLE "0:"
    INDEX 01 00:17:06
  TRACK 12 AUDIO
    TITLE "2:cjc133_0607"
    INDEX 01 00:17:53
  TRACK 13 AUDIO
    TITLE "2:cjc133_0608"
    INDEX 01 00:18:56
  TRACK 14 AUDIO
    TITLE "2:cjc133_0609"
    INDEX 01 00:21:08
  TRACK 15 AUDIO
    TITLE "0:"
    INDEX 01 00:22:46
  TRACK 16 AUDIO
    TITLE "2:cjc133_0610"
    INDEX 01 00:23:14
  TRACK 17 AUDIO
    TITLE "2:cjc133_0611"
    INDEX 01 00:25:54
  TRACK 18 AUDIO
    TITLE "2:cjc133_0612"
    INDEX 01 00:28:23
  TRACK 19 AUDIO
    TITLE "0:"
    INDEX 01 00:29:68
  TRACK 20 AUDIO
    TITLE "2:cjc133_0613"
    INDEX 01 00:30:44
  TRACK 21 AUDIO
    TITLE "2:cjc133_0614"
    INDEX 01 00:33:17
  TRACK 22 AUDIO
    TITLE "2:cjc133_0615"
    INDEX 01 00:36:05
  TRACK 23 AUDIO
    TITLE "0:"
    INDEX 01 00:38:00
  TRACK 24 AUDIO
    TITLE "2:cjc133_0616"
    INDEX 01 00:38:51
  TRACK 25 AUDIO
    TITLE "2:cjc133_0617"
    INDEX 01 00:40:11
  TRACK 26 AUDIO
    TITLE "2:cjc133_0618"
    INDEX 01 00:43:05
  TRACK 27 AUDIO
    TITLE "0:"
    INDEX 01 00:45:02
  TRACK 28 AUDIO
    TITLE "2:cjc133_0619"
    INDEX 01 00:45:49
  TRACK 29 AUDIO
    TITLE "2:cjc133_0620"
    INDEX 01 00:48:10
  TRACK 30 AUDIO
    TITLE "2:cjc133_0621"
    INDEX 01 00:51:03
  TRACK 31 AUDIO
    TITLE "0:"
    INDEX 01 00:52:71
  TRACK 32 AUDIO
    TITLE "2:cjc133_0622"
    INDEX 01 00:53:53
  TRACK 33 AUDIO
    TITLE "2:cjc133_0623"
    INDEX 01 00:56:31
  TRACK 34 AUDIO
    TITLE "2:cjc133_0624"
    INDEX 01 00:59:08
  TRACK 35 AUDIO
    TITLE "0:"
    INDEX 01 01:01:05
  TRACK 36 AUDIO
    TITLE "2:cjc133_0625"
    INDEX 01 01:01:46
  TRACK 37 AUDIO
    TITLE "2:cjc133_0626"
    INDEX 01 01:04:54
  TRACK 38 AUDIO
    TITLE "2:cjc133_0627"
    INDEX 01 01:07:66
  TRACK 39 AUDIO
    TITLE "0:"
    INDEX 01 01:10:06
  TRACK 40 AUDIO
    TITLE "2:cjc133_0628"
    INDEX 01 01:10:57
  TRACK 41 AUDIO
    TITLE "2:cjc133_0629"
    INDEX 01 01:12:13
  TRACK 42 AUDIO
    TITLE "2:cjc133_0630"
    INDEX 01 01:14:53
  TRACK 43 AUDIO
    TITLE "0:"
    INDEX 01 01:16:20
  TRACK 44 AUDIO
    TITLE "2:cjc133_0631"
    INDEX 01 01:16:73
  TRACK 45 AUDIO
    TITLE "2:cjc133_0632"
    INDEX 01 01:18:54
  TRACK 46 AUDIO
    TITLE "2:cjc133_0633"
    INDEX 01 01:21:25
  TRACK 47 AUDIO
    TITLE "0:"
    INDEX 01 01:22:74
  TRACK 48 AUDIO
    TITLE "2:cjc133_0634"
    INDEX 01 01:23:48
  TRACK 49 AUDIO
    TITLE "2:cjc133_0635"
    INDEX 01 01:26:29
  TRACK 50 AUDIO
    TITLE "2:cjc133_0636"
    INDEX 01 01:29:09
  TRACK 51 AUDIO
    TITLE "0:"
    INDEX 01 01:30:66
  TRACK 52 AUDIO
    TITLE "2:cjc133_0637"
    INDEX 01 01:31:43
  TRACK 53 AUDIO
    TITLE "2:cjc133_0638"
    INDEX 01 01:33:74
  TRACK 54 AUDIO
    TITLE "2:cjc133_0639"
    INDEX 01 01:37:01
  TRACK 55 AUDIO
    TITLE "0:"
    INDEX 01 01:39:06
  TRACK 56 AUDIO
    TITLE "2:cjc133_0640"
    INDEX 01 01:39:57
  TRACK 57 AUDIO
    TITLE "2:cjc133_0641"
    INDEX 01 01:40:64
  TRACK 58 AUDIO
    TITLE "2:cjc133_0642"
    INDEX 01 01:43:66
  TRACK 59 AUDIO
    TITLE "0:"
    INDEX 01 01:45:69
  TRACK 60 AUDIO
    TITLE "2:cjc133_0643"
    INDEX 01 01:46:49
  TRACK 61 AUDIO
    TITLE "2:cjc133_0644"
    INDEX 01 01:49:32
  TRACK 62 AUDIO
    TITLE "2:cjc133_0645"
    INDEX 01 01:52:22
  TRACK 63 AUDIO
    TITLE "0:"
    INDEX 01 01:54:21
